<?xml version="1.0" encoding="UTF-8" standalone="no"?>
<svg
   xmlns:dc="http://purl.org/dc/elements/1.1/"
   xmlns:cc="http://creativecommons.org/ns#"
   xmlns:rdf="http://www.w3.org/1999/02/22-rdf-syntax-ns#"
   xmlns:svg="http://www.w3.org/2000/svg"
   xmlns="http://www.w3.org/2000/svg"
   xmlns:sodipodi="http://sodipodi.sourceforge.net/DTD/sodipodi-0.dtd"
   xmlns:inkscape="http://www.inkscape.org/namespaces/inkscape"
   inkscape:export-ydpi="500"
   inkscape:export-xdpi="500"
   width="104.24583mm"
   height="95.17765mm"
   viewBox="0 0 104.24583 95.17765"
   version="1.1"
   id="svg8"
   inkscape:version="1.0 (4035a4f, 2020-05-01)"
   sodipodi:docname="rstick.svg">
  <defs
     id="defs2">
    <inkscape:perspective
       id="perspective953"
       inkscape:persp3d-origin="39.750502 : 28.510983 : 1"
       inkscape:vp_z="79.501005 : 45.177649 : 1"
       inkscape:vp_y="0 : 999.99998 : 0"
       inkscape:vp_x="0 : 45.177649 : 1"
       sodipodi:type="inkscape:persp3d" />
  </defs>
  <sodipodi:namedview
     fit-margin-bottom="0"
     fit-margin-right="0"
     fit-margin-left="0"
     fit-margin-top="0"
     inkscape:snap-global="true"
     id="base"
     pagecolor="#a6a6a6"
     bordercolor="#666666"
     borderopacity="1.0"
     inkscape:pageopacity="0"
     inkscape:pageshadow="2"
     inkscape:zoom="1"
     inkscape:cx="47.37309"
     inkscape:cy="305.67932"
     inkscape:document-units="mm"
     inkscape:current-layer="layer1"
     inkscape:document-rotation="0"
     showgrid="false"
     inkscape:window-width="1440"
     inkscape:window-height="829"
     inkscape:window-x="0"
     inkscape:window-y="23"
     inkscape:window-maximized="0" />
  <metadata
     id="metadata5">
    <rdf:RDF>
      <cc:Work
         rdf:about="">
        <dc:format>image/svg+xml</dc:format>
        <dc:type
           rdf:resource="http://purl.org/dc/dcmitype/StillImage" />
        <dc:title />
      </cc:Work>
    </rdf:RDF>
  </metadata>
  <g
     transform="translate(12.372371,-16.89819)"
     inkscape:label="Layer 1"
     inkscape:groupmode="layer"
     id="layer1"
     style="display:inline;opacity:1">
    <ellipse
       ry="28.345783"
       rx="39.952087"
       cy="53.745781"
       cx="39.7505"
       id="path920"
       style="fill:#ffffff;fill-opacity:0.975807;stroke-width:0.264095;stroke-opacity:0.943548" />
    <path
       inkscape:connector-curvature="0"
       transform="scale(0.26458333)"
       d="M 150.08203,63.867188 A 197.00002,153.13367 0 0 0 -46.761719,217 197.00002,153.13367 0 0 0 150.23828,370.13281 197.00002,153.13367 0 0 0 347.23828,217 a 197.00002,153.13367 0 0 0 -197,-153.132812 197.00002,153.13367 0 0 0 -0.15625,0 z M 150.23828,91 a 160.5,115.5 0 0 1 160.5,115.5 160.5,115.5 0 0 1 -160.5,115.5 A 160.5,115.5 0 0 1 -10.261719,206.5 160.5,115.5 0 0 1 150.23828,91 Z"
       style="display:inline;opacity:1;fill:#ffffff;fill-opacity:1;stroke-width:1.36306;stroke-opacity:0.943548"
       id="path920-8" />
    <g
       transform="matrix(0.5507951,0,0,0.5507951,12.249604,19.207672)"
       id="g2118">
      <path
         style="display:inline;opacity:1;fill:#000000;fill-opacity:1;stroke:none;stroke-width:0.417963px;stroke-linecap:butt;stroke-linejoin:miter;stroke-opacity:1"
         d="m 28.413226,88.694567 v -55.1592 h 21.51765 c 9.91671,1.190231 16.10826,5.88049 16.43528,16.660422 -0.24424,6.629562 -6.03812,14.372251 -8.13933,14.054587 l 13.219,24.444191 H 58.035936 L 44.817276,64.34843 h -4.6421 v 24.346422 z"
         id="path1026"
         inkscape:connector-curvature="0"
         sodipodi:nodetypes="ccccccccccc" />
      <path
         style="display:inline;opacity:1;fill:#ffffff;fill-opacity:1;stroke:none;stroke-width:0.324032px;stroke-linecap:butt;stroke-linejoin:miter;stroke-opacity:1"
         d="m 40.175226,44.558473 v 9.163323 h 8.411541 c 6.71574,-0.226013 5.909026,-8.987707 0.365757,-8.996604 z"
         id="path1028"
         inkscape:connector-curvature="0"
         sodipodi:nodetypes="ccccc" />
    </g>
    <path
       inkscape:connector-curvature="0"
       d="m 20.700545,97.244708 v 11.924502 a 52.122921,42.015714 0 0 0 19.049999,2.90663 52.122921,42.015714 0 0 0 19.05,-2.90663 V 97.244708 a 52.122921,42.015714 0 0 1 -19.05,2.906642 52.122921,42.015714 0 0 1 -19.049999,-2.906642 z"
       style="opacity:1;fill:#ffffff;fill-opacity:0.975807;stroke:none;stroke-width:0.3055;stroke-opacity:0.943548"
       id="rect971" />
  </g>
</svg>
