<?xml version="1.0" encoding="UTF-8" standalone="no"?>
<svg
   xmlns:dc="http://purl.org/dc/elements/1.1/"
   xmlns:cc="http://creativecommons.org/ns#"
   xmlns:rdf="http://www.w3.org/1999/02/22-rdf-syntax-ns#"
   xmlns:svg="http://www.w3.org/2000/svg"
   xmlns="http://www.w3.org/2000/svg"
   xmlns:xlink="http://www.w3.org/1999/xlink"
   xmlns:sodipodi="http://sodipodi.sourceforge.net/DTD/sodipodi-0.dtd"
   xmlns:inkscape="http://www.inkscape.org/namespaces/inkscape"
   sodipodi:docname="row.svg"
   inkscape:version="1.0beta2 (2b71d25, 2019-12-03)"
   id="svg8"
   version="1.1"
   viewBox="0 0 100 100"
   height="100mm"
   width="100mm">
  <defs
     id="defs2">
    <linearGradient
       id="linearGradient869"
       inkscape:collect="always">
      <stop
         id="stop865"
         offset="0"
         style="stop-color:#878787;stop-opacity:0.5846774" />
      <stop
         id="stop867"
         offset="1"
         style="stop-color:#000000;stop-opacity:0" />
    </linearGradient>
    <inkscape:path-effect
       hide_knots="false"
       only_selected="false"
       apply_with_radius="true"
       apply_no_radius="true"
       use_knot_distance="true"
       flexible="false"
       chamfer_steps="1"
       radius="20"
       mode="F"
       method="auto"
       unit="px"
       satellites_param="F,0,0,1,0,5.2916667,0,1 @ F,0,0,1,0,5.2916667,0,1 @ F,0,0,1,0,5.2916667,0,1 @ F,0,0,1,0,5.2916667,0,1 @ F,0,0,1,0,5.2916667,0,1 @ F,0,0,1,0,5.2916667,0,1 @ F,0,0,1,0,5.2916667,0,1 @ F,0,0,1,0,5.2916667,0,1 @ F,0,0,1,0,5.2916667,0,1 @ F,0,0,1,0,5.2916667,0,1 @ F,0,0,1,0,5.2916667,0,1 @ F,0,0,1,0,5.2916667,0,1"
       lpeversion="1"
       is_visible="true"
       id="path-effect855"
       effect="fillet_chamfer" />
    <inkscape:path-effect
       only_selected="false"
       apply_with_weight="true"
       apply_no_weight="true"
       helper_size="0"
       steps="1"
       weight="32.7333"
       lpeversion="1"
       is_visible="true"
       id="path-effect853"
       effect="bspline" />
    <radialGradient
       gradientUnits="userSpaceOnUse"
       r="143.74509"
       fy="188.97723"
       fx="188.97723"
       cy="188.97723"
       cx="188.97723"
       id="radialGradient875"
       xlink:href="#linearGradient869"
       inkscape:collect="always" />
  </defs>
  <sodipodi:namedview
     inkscape:window-maximized="0"
     inkscape:window-y="26"
     inkscape:window-x="0"
     inkscape:window-height="874"
     inkscape:window-width="1440"
     showgrid="false"
     inkscape:document-rotation="0"
     inkscape:current-layer="layer1"
     inkscape:document-units="mm"
     inkscape:cy="262.27273"
     inkscape:cx="175"
     inkscape:zoom="0.88"
     inkscape:pageshadow="2"
     inkscape:pageopacity="0.0"
     borderopacity="1.0"
     bordercolor="#666666"
     pagecolor="#ffffff"
     id="base" />
  <metadata
     id="metadata5">
    <rdf:RDF>
      <cc:Work
         rdf:about="">
        <dc:format>image/svg+xml</dc:format>
        <dc:type
           rdf:resource="http://purl.org/dc/dcmitype/StillImage" />
        <dc:title></dc:title>
      </cc:Work>
    </rdf:RDF>
  </metadata>
  <g
     id="layer1"
     inkscape:groupmode="layer"
     inkscape:label="Layer 1">
    <path
       inkscape:original-d="m 179.52734,47.244141 c 10e-4,43.301656 10e-4,88.983539 0,132.283199 -43.29966,10e-4 -88.981543,10e-4 -132.283199,0 10e-4,6.18708 10e-4,12.71336 0,18.89844 43.301656,0.001 88.983539,0.001 132.283199,0 10e-4,43.30166 10e-4,88.98354 0,132.2832 6.18708,10e-4 12.71336,10e-4 18.89844,0 0.001,-43.29966 0.001,-88.98154 0,-132.2832 43.30166,0.001 88.98354,0.001 132.2832,0 10e-4,-6.18508 10e-4,-12.71136 0,-18.89844 -43.29966,10e-4 -88.98154,10e-4 -132.2832,0 0.001,-43.29966 0.001,-88.981543 0,-132.283199 -6.18508,10e-4 -12.71136,10e-4 -18.89844,0 z"
       inkscape:path-effect="#path-effect855"
       transform="scale(0.26458333)"
       d="m 179.52746,52.535808 c 8.4e-4,39.951989 8.4e-4,81.749552 0,121.699862 -6e-5,2.92251 -2.36928,5.29173 -5.29179,5.29179 -39.95031,8.4e-4 -81.747873,8.4e-4 -121.699862,0 -2.922507,-6e-5 -5.291262,2.36904 -5.29106,5.29155 1.91e-4,2.76243 1.91e-4,5.55304 0,8.3151 -2.02e-4,2.92251 2.368553,5.29173 5.29106,5.29179 39.951989,8.4e-4 81.749552,8.4e-4 121.699862,0 2.92251,-6e-5 5.29173,2.36904 5.29179,5.29155 8.4e-4,39.95199 8.4e-4,81.74955 0,121.69986 -6e-5,2.92251 2.36904,5.29207 5.29155,5.29228 2.76243,1.9e-4 5.55304,1.9e-4 8.3151,0 2.92251,-2e-4 5.29173,-2.36977 5.29179,-5.29228 8.4e-4,-39.95031 8.4e-4,-81.74787 0,-121.69986 -6e-5,-2.92251 2.36904,-5.29161 5.29155,-5.29155 39.95199,8.4e-4 81.74955,8.4e-4 121.69986,0 2.92251,-6e-5 5.29208,-2.36928 5.29228,-5.29179 1.9e-4,-2.76206 1.9e-4,-5.55267 0,-8.3151 -2.1e-4,-2.92251 -2.36977,-5.29161 -5.29228,-5.29155 -39.95031,8.4e-4 -81.74787,8.4e-4 -121.69986,0 -2.92251,-6e-5 -5.29161,-2.36928 -5.29155,-5.29179 8.4e-4,-39.95031 8.4e-4,-81.747873 0,-121.699862 -6e-5,-2.922507 -2.36928,-5.291262 -5.29179,-5.29106 -2.76206,1.91e-4 -5.55267,1.91e-4 -8.3151,0 -2.92251,-2.02e-4 -5.29161,2.368553 -5.29155,5.29106 z"
       style="fill:#000000;fill-opacity:1;stroke-width:4.0251969;stroke:url(#radialGradient875);stroke-opacity:1;stroke-miterlimit:4;stroke-dasharray:none"
       id="rect833" />
  </g>
</svg>
